<?xml version="1.0" standalone="no"?>
<!DOCTYPE svg PUBLIC "-//W3C//DTD SVG 20010904//EN"
 "http://www.w3.org/TR/2001/REC-SVG-20010904/DTD/svg10.dtd">
<svg version="1.0" xmlns="http://www.w3.org/2000/svg"
 width="744.000000pt" height="744.000000pt" viewBox="0 0 744.000000 744.000000"
 preserveAspectRatio="xMidYMid meet">
<metadata>
Created by potrace 1.11, written by Peter Selinger 2001-2013
</metadata>
<g transform="translate(0.000000,744.000000) scale(0.100000,-0.100000)"
fill="#000000" stroke="none">
<path d="M206 7228 c-11 -174 -26 -872 -36 -1718 -6 -465 -16 -1074 -22 -1355
-25 -1055 -8 -1447 78 -1875 54 -268 86 -345 208 -495 78 -96 286 -294 483
-460 7 -5 19 -16 27 -22 8 -7 19 -13 25 -13 5 0 11 -3 13 -8 3 -8 173 -119
290 -190 37 -23 163 -91 280 -153 117 -61 218 -115 223 -119 6 -4 133 -67 283
-139 151 -72 355 -175 455 -230 100 -54 216 -113 257 -131 41 -18 81 -37 88
-42 6 -6 12 -7 12 -3 0 4 6 3 13 -3 22 -19 178 -71 287 -96 316 -74 526 -88
830 -55 175 19 410 75 527 126 21 9 40 18 43 18 43 14 562 271 595 295 6 4
120 60 255 126 135 65 272 134 305 152 33 19 136 72 229 119 386 195 673 399
931 664 130 134 299 345 289 361 -3 5 0 15 6 23 7 8 9 15 5 15 -4 0 -3 6 3 13
25 31 85 331 116 582 38 305 45 702 26 1575 -5 261 -14 853 -20 1315 -10 840
-25 1548 -36 1723 -6 89 -7 92 -27 86 -12 -4 -24 -9 -27 -13 -3 -3 -25 -17
-50 -30 -25 -13 -196 -123 -380 -245 -369 -245 -467 -303 -621 -372 -234 -104
-463 -153 -849 -179 -1025 -69 -2143 -69 -3165 1 -401 27 -597 68 -833 173
-160 71 -279 141 -510 296 -111 74 -204 135 -206 135 -3 0 -63 37 -133 83
-140 91 -248 157 -256 157 -3 0 -8 -42 -11 -92z"/>
<path d="M6 5524 c-10 -79 -7 -4427 4 -4444 6 -10 10 780 10 2238 0 1238 -2
2252 -4 2252 -2 0 -6 -21 -10 -46z"/>
<path d="M6 184 c-10 -27 -7 -184 4 -184 6 0 10 40 10 100 0 100 -2 114 -14
84z"/>
</g>
</svg>
